<?xml version="1.0" encoding="utf-8"?>
<!-- Generator: Adobe Illustrator 19.2.1, SVG Export Plug-In . SVG Version: 6.00 Build 0)  -->
<svg version="1.1" id="Ebene_1" xmlns="http://www.w3.org/2000/svg" xmlns:xlink="http://www.w3.org/1999/xlink" x="0px" y="0px"
	 viewBox="0 0 270 51" style="enable-background:new 0 0 270 51;" xml:space="preserve">
<style type="text/css">
	.st0{fill-rule:evenodd;clip-rule:evenodd;fill:url(#SVGID_1_);}
	.st1{fill:#AB1D2D;}
	.st2{fill:url(#SVGID_2_);}
	.st3{fill:url(#SVGID_3_);}
</style>
<rect y="0" width="270" height="51"/>
<g>
	
		<linearGradient id="SVGID_1_" gradientUnits="userSpaceOnUse" x1="50.6231" y1="61.7783" x2="50.6231" y2="65.6678" gradientTransform="matrix(0.9977 -6.787925e-002 6.787925e-002 0.9977 -14.4422 -21.7321)">
		<stop  offset="0" style="stop-color:#FFFFFF"/>
		<stop  offset="1" style="stop-color:#C6C6C5"/>
	</linearGradient>
	<path class="st0" d="M47.7,46.2c0.6-0.5,0.6-1.5,0-2.1l-9.9-9.9c-0.5-0.5-1.3-0.6-1.9-0.2l-1.6-1.6c-0.4,0.6-0.9,1.1-1.5,1.5
		l1.6,1.5c-0.6,0.6-0.6,1.5,0,2.1l9.9,9.9c0.6,0.6,1.5,0.6,2.1,0L47.7,46.2z"/>
</g>
<path class="st1" d="M146.6,33.2c0.7-0.7,1.4-1.6,1.8-2.8c0.5-1.2,0.7-2.4,0.7-3.6c0-2-0.5-3.6-1.6-4.9c-1.1-1.3-2.5-2-4.2-2.2
	c-0.7,0.7-1.4,1.6-1.8,2.8c-0.5,1.2-0.7,2.4-0.7,3.6c0,2,0.5,3.6,1.6,4.9C143.4,32.4,144.9,33.1,146.6,33.2 M144.7,36.6
	c-2.6,0-4.9-0.9-6.7-2.7c-1.8-1.8-2.6-4.1-2.6-6.8c0-3.1,0.9-5.7,2.8-7.7s4.2-3.1,7.1-3.1c2.7,0,4.9,0.9,6.7,2.7
	c1.8,1.8,2.6,4.1,2.6,6.8c0,3.1-0.9,5.7-2.8,7.7C149.9,35.7,147.5,36.6,144.7,36.6z M116.6,30.9v-8.8c0-1.3-0.1-2.4-0.2-3.2
	c-0.1-0.8-0.3-1.5-0.7-2.1h3h3.1v3.7l3.4-4c0.6-0.1,1.3-0.1,2-0.1c1.7,0,3,0.5,4,1.4c0.9,0.9,1.4,2.2,1.4,4v9.2
	c0,1.4,0.1,2.4,0.2,3.2c0.1,0.8,0.3,1.5,0.7,2.1h-3.5h-3.5c0.3-0.6,0.5-1.3,0.7-2.1c0.1-0.8,0.2-1.8,0.2-3.2v-7.8
	c0-0.7-0.2-1.3-0.6-1.7c-0.4-0.4-1-0.6-1.7-0.6c-0.9,0-1.7,0.3-2.4,0.9c-0.3,0.2-0.5,0.4-0.7,0.6v8.7c0,1.4,0.1,2.4,0.2,3.2
	s0.3,1.5,0.7,2.1h-3.6h-3.5c0.3-0.6,0.5-1.3,0.7-2.1S116.6,32.3,116.6,30.9z M109.5,8.3c0.9,0,1.6,0.3,2.3,0.9
	c0.7,0.6,0.9,1.4,0.9,2.3c0,0.9-0.3,1.7-0.9,2.3c-0.6,0.7-1.4,0.9-2.3,0.9c-0.9,0-1.7-0.3-2.3-0.9c-0.7-0.6-0.9-1.4-0.9-2.3
	c0-0.9,0.3-1.6,0.9-2.3C107.9,8.5,108.7,8.3,109.5,8.3z M106.9,30.9v-8.8c0-1.3-0.1-2.4-0.2-3.2c-0.1-0.8-0.3-1.5-0.7-2.1h3.5h3.5
	c-0.3,0.9-0.5,2-0.7,3.1c-0.1,1.1-0.2,2.6-0.2,4.3v6.7c0,1.3,0.1,2.4,0.2,3.2c0.1,0.8,0.3,1.5,0.7,2.1h-3.5H106
	c0.3-0.6,0.5-1.3,0.7-2.1C106.8,33.4,106.9,32.3,106.9,30.9z M103.6,21c-0.7-0.5-1.3-0.7-1.8-0.9c-0.6-0.2-1.3-0.3-2-0.3
	c-0.6,0-1.1,0.2-1.5,0.5c-0.4,0.3-0.6,0.8-0.6,1.3c0,0.5,0.1,0.9,0.4,1.3c0.3,0.3,0.7,0.7,1.3,1.2c1.5,1.1,2.6,2.2,3.4,3.3
	c0.7,1.1,1.1,2.2,1.1,3.3c0,1.7-0.7,3.2-1.9,4.3c-1.3,1.2-2.9,1.7-4.9,1.7c-1,0-1.8-0.1-2.5-0.1c-0.7-0.1-1.6-0.3-2.6-0.7V31
	c0.7,0.8,1.4,1.4,2.2,1.7c0.7,0.3,1.4,0.5,2.2,0.5c0.7,0,1.2-0.2,1.6-0.5c0.5-0.3,0.7-0.8,0.7-1.3c0-0.7-0.2-1.3-0.6-1.8
	c-0.4-0.5-1.1-1.2-2.2-2c-1.1-0.8-2-1.6-2.5-2.5s-0.8-1.8-0.8-2.7c0-1.7,0.7-3.2,2-4.3c1.4-1.2,3.1-1.7,5.1-1.7
	c0.9,0,1.6,0.1,2.3,0.1c0.7,0.1,1.3,0.3,1.7,0.5V21H103.6z M84.2,32.4v-4.3h-3c-0.3,0-0.6,0.4-0.9,1.1c-0.3,0.7-0.5,1.4-0.5,2
	c0,0.6,0.2,1.1,0.7,1.4c0.5,0.4,1.1,0.6,1.7,0.6c0.5,0,1.1-0.2,1.6-0.6L84.2,32.4z M80.7,36.6c-1.8,0-3.2-0.5-4.4-1.4
	c-1.2-1-1.8-2.2-1.8-3.7c0-1.4,0.4-2.5,1.2-3.3c0.8-0.9,2.3-1.7,4.5-2.6l3.9-1.6v-0.1c0-1.2-0.3-2.1-0.9-2.8c-0.6-0.7-1.4-1-2.4-1
	c-0.9,0-1.6,0.1-2.2,0.3c-0.7,0.2-1.3,0.5-2.1,1l0.7-4.3c1.3-0.3,2.2-0.6,3-0.7c0.8-0.1,1.6-0.2,2.7-0.2c2,0,3.6,0.6,4.7,1.7
	s1.7,2.8,1.7,4.9v8c0,1.4,0.1,2.4,0.2,3.2c0.1,0.8,0.3,1.5,0.7,2.1h-3h-3v-2l-2.5,2.4C81.6,36.6,81.2,36.6,80.7,36.6z M72.6,34.5
	c-1.7,0.8-3.2,1.4-4.5,1.6c-1.3,0.3-2.8,0.5-4.6,0.5c-4.1,0-7.5-1.3-10.2-4c-2.7-2.6-4.1-5.9-4.1-9.9c0-4.3,1.5-7.9,4.6-10.7
	c3-2.8,6.8-4.3,11.5-4.3c1.3,0,2.4,0.1,3.3,0.3c0.9,0.2,2.1,0.5,3.6,1v5.3c-1.4-0.9-2.6-1.4-3.7-1.8c-1.1-0.3-2.4-0.5-3.8-0.5
	c-2.6,0-4.7,1-6.5,2.9c-1.7,2-2.6,4.4-2.6,7.3c0,3,0.8,5.3,2.4,7.3c1.6,1.9,3.7,2.9,6.1,2.9c1.6,0,3.1-0.3,4.4-0.7
	c1.3-0.5,2.6-1.3,4-2.4C72.6,29.2,72.6,34.5,72.6,34.5z"/>
<linearGradient id="SVGID_2_" gradientUnits="userSpaceOnUse" x1="160.9463" y1="8.8805" x2="266.5756" y2="8.8805" gradientTransform="matrix(1 0 0 -1 0 34)">
	<stop  offset="0" style="stop-color:#FFFFFF"/>
	<stop  offset="1" style="stop-color:#C6C6C5"/>
</linearGradient>
<path class="st2" d="M257,32.6c1.4,0,2.4-0.5,3.2-1.6c0.7-1.1,1.1-2.6,1.1-4.5c0-1.8-0.4-3.2-1.1-4.3c-0.7-1.1-1.7-1.6-3-1.6
	c-0.9,0-1.8,0.2-2.6,0.6v11C255.4,32.4,256.1,32.6,257,32.6 M249.4,21.9c0-1.3-0.1-2.4-0.2-3.2c-0.1-0.8-0.3-1.5-0.7-2.1h3h3.1v3.2
	l3.2-3.6h0.7c2.5,0,4.4,0.9,5.9,2.8c1.4,1.8,2.2,4.3,2.2,7.5c0,2.9-0.8,5.3-2.3,7.2c-1.5,1.9-3.4,2.9-5.8,2.9c-1.4,0-2.8-0.3-3.9-1
	v1.4c0,1.4,0.1,2.4,0.2,3.2c0.1,0.8,0.3,1.5,0.7,2.1H252h-3.5c0.3-0.6,0.5-1.3,0.7-2.1s0.2-1.8,0.2-3.2L249.4,21.9L249.4,21.9z
	 M234.3,21.9v7.8c0,0.7,0.2,1.3,0.6,1.7c0.4,0.4,1,0.6,1.7,0.6c0.9,0,1.7-0.3,2.4-0.9l0.7-0.6v-8.7c0-1.3-0.1-2.4-0.2-3.2
	c-0.1-0.8-0.3-1.5-0.7-2.1h3.5h3.5c-0.3,0.6-0.5,1.3-0.7,2.1c-0.1,0.8-0.2,1.8-0.2,3.2v8.9c0,1.3,0.1,2.4,0.2,3.2
	c0.1,0.8,0.3,1.5,0.7,2.1h-2.9H240v-2.8l-2.9,3.1c-0.5,0.1-1.1,0.1-1.7,0.1c-2,0-3.6-0.5-4.7-1.6s-1.6-2.7-1.6-4.7v-8.3
	c0-1.3-0.1-2.4-0.2-3.2c-0.1-0.8-0.3-1.5-0.7-2.1h3.5h3.5c-0.3,0.6-0.5,1.3-0.7,2.1C234.4,19.5,234.3,20.6,234.3,21.9z M221.2,24
	L221.2,24c0-1.4-0.3-2.4-0.9-3.2c-0.6-0.8-1.4-1.2-2.4-1.2h0.1c-0.9,0-1.7,0.5-2.3,1.5c-0.5,0.8-0.8,1.8-0.9,2.9H221.2z M219.9,36.5
	c-2.9,0-5.3-0.9-7.2-2.7c-1.9-1.8-2.9-4.1-2.9-6.8c0-3.1,0.8-5.7,2.4-7.7s3.6-3.1,5.9-3.1h0.1c2.4,0,4.3,0.8,5.6,2.3
	c1.4,1.5,2,3.6,2,6.4c0,0.9-0.1,1.6-0.1,2.5h-10.7c0.3,1.3,0.8,2.3,1.5,3.2c1.2,1.4,2.8,2.1,4.7,2.1c0.7,0,1.4-0.1,2.2-0.3
	c0.7-0.2,1.4-0.6,2.4-1.2l-2,4.7c-0.9,0.3-1.6,0.4-2.1,0.5C221.2,36.4,220.5,36.5,219.9,36.5z M190.8,30.8v-8.9
	c0-1.3-0.1-2.4-0.2-3.2c-0.1-0.8-0.3-1.5-0.7-2.1h3h3.1v3.7l3.4-4c0.6-0.1,1.3-0.1,2-0.1c1.7,0,3,0.5,4,1.4s1.4,2.2,1.4,4v9.2
	c0,1.4,0.1,2.4,0.2,3.2c0.1,0.8,0.3,1.5,0.7,2.1h-3.5h-3.5c0.3-0.6,0.5-1.3,0.7-2.1s0.2-1.8,0.2-3.2v-7.8c0-0.7-0.2-1.3-0.6-1.7
	s-1-0.6-1.7-0.6c-0.9,0-1.7,0.3-2.4,0.9c-0.3,0.2-0.5,0.4-0.7,0.6v8.7c0,1.4,0.1,2.4,0.2,3.2c0.1,0.8,0.3,1.5,0.7,2.1h-3.5H190
	c0.3-0.6,0.5-1.3,0.7-2.1C190.7,33.2,190.8,32.1,190.8,30.8z M183.7,8.1c0.9,0,1.6,0.3,2.3,0.9c0.7,0.6,0.9,1.4,0.9,2.3
	c0,0.9-0.3,1.7-0.9,2.3c-0.6,0.7-1.4,0.9-2.3,0.9s-1.7-0.3-2.3-0.9c-0.7-0.6-0.9-1.4-0.9-2.3c0-0.9,0.3-1.6,0.9-2.3
	C182.1,8.4,182.8,8.1,183.7,8.1z M181.1,30.8v-8.9c0-1.3-0.1-2.4-0.2-3.2c-0.1-0.8-0.3-1.5-0.7-2.1h3.5h3.5c-0.3,0.9-0.5,2-0.7,3.1
	c-0.1,1.1-0.2,2.6-0.2,4.3v6.7c0,1.3,0.1,2.4,0.2,3.2c0.1,0.8,0.3,1.5,0.7,2.1h-3.5h-3.5c0.3-0.6,0.5-1.3,0.7-2.1
	C181,33.2,181.1,32.1,181.1,30.8z M160.9,36.1c0.3-0.7,0.6-1.4,0.8-2.2c0.1-0.8,0.2-1.8,0.2-3.1V13.3c0-1.3-0.1-2.2-0.2-3
	c-0.1-0.8-0.4-1.6-0.8-2.3h4h4c-0.3,0.7-0.6,1.4-0.8,2.2c-0.1,0.8-0.2,1.8-0.2,3.1v19c1.8-0.1,3.4-0.3,4.7-0.5c2-0.4,3.9-1.1,5.7-2
	l-1.3,3.2l-1.3,3.2h-7.8L160.9,36.1L160.9,36.1z"/>
<g>
	
		<linearGradient id="SVGID_3_" gradientUnits="userSpaceOnUse" x1="21.6951" y1="16.9345" x2="21.6951" y2="9.7494" gradientTransform="matrix(1 0 0 -1 0 34)">
		<stop  offset="0" style="stop-color:#FFFFFF"/>
		<stop  offset="1" style="stop-color:#C6C6C5"/>
	</linearGradient>
	<path class="st3" d="M21.7,2.9c9.9,0,18,8,18,18c0,9.9-8,17.8-18,17.8v-6.2c6.5,0,11.7-5.3,11.7-11.7c0-6.5-5.2-11.8-11.7-11.8
		C21.7,9.1,21.7,2.9,21.7,2.9z M21.7,38.7c-9.9,0-18-8-18-17.8c0-9.9,8-18,18-18v6.2C15.2,9.1,10,14.4,10,20.9
		c0,6.4,5.3,11.7,11.7,11.7V38.7z"/>
</g>
<g>
	<g>
		<path class="st1" d="M20.8,26.6c-0.7,0.5-1.1,0.5-1.1,0.5v0.7h4.1v-0.6c0,0-0.4,0-1.1-0.5c-0.5-0.4-0.7-1.1-0.9-1.7
			c-0.1-0.4-0.1-0.5-0.2,0C21.6,25.6,21.4,26.2,20.8,26.6 M21.9,13.8c-0.9,0.5-7.6,3.9-7.4,8c0.1,4.4,5.1,4.1,6.3,3.4
			c0.7-0.5,0.9-0.8,1.1-1.1c0.1,0.3,0.4,0.7,1,1.1c1.3,0.9,6.1,1.3,6.4-3.2c0.3-4.1-6.1-7.6-7.2-8.2C22,13.8,22,13.8,21.9,13.8z"/>
	</g>
</g>
</svg>
