<?xml version="1.0" encoding="utf-8"?>
<!-- Generator: Adobe Illustrator 16.0.0, SVG Export Plug-In . SVG Version: 6.00 Build 0)  -->
<!DOCTYPE svg PUBLIC "-//W3C//DTD SVG 1.1//EN" "http://www.w3.org/Graphics/SVG/1.1/DTD/svg11.dtd">
<svg version="1.1" id="Layer_1" xmlns="http://www.w3.org/2000/svg" xmlns:xlink="http://www.w3.org/1999/xlink" x="0px" y="0px"
	 width="180px" height="45px" viewBox="198 231.25 180 45" enable-background="new 198 231.25 180 45" xml:space="preserve">
<g>
	<path fill="#AB1D2D" d="M360.255,254.095c-5.697,0-10.31,4.615-10.31,10.309c0,5.7,4.612,10.312,10.31,10.312
		c5.7,0,10.312-4.611,10.312-10.312C370.565,258.71,365.954,254.095,360.255,254.095z"/>
	<path fill="#AB1D2D" d="M370.721,233.763c-1.524,0-3.086,0.25-4.641,0.745c-1.773,0.563-3.136,1.301-4.178,2.27
		c-0.921,0.865-1.67,2.009-2.195,3.324c-1.283,3.021-2.502,6.572-3.64,10.584c-0.378-1.239-0.924-2.375-1.639-3.384
		c-0.705-0.985-1.536-1.802-2.479-2.428c-0.287-2.119-1.938-4.323-7.558-4.323c-2.399,0-4.785,0.543-7.095,1.613
		c-2.172,1.009-4.178,2.397-5.965,4.128c-0.328,0.319-0.632,0.653-0.936,0.988c-0.703-0.979-1.528-1.787-2.46-2.406
		c-0.287-2.12-1.938-4.325-7.559-4.325c-2.398,0-4.784,0.544-7.091,1.614c-2.172,1.007-4.178,2.396-5.968,4.129
		c-0.189,0.186-0.36,0.384-0.543,0.574c-0.026-0.038-0.046-0.084-0.074-0.12c-0.881-1.161-2.574-2.544-5.641-2.544
		c-1.342,0-2.653,0.325-3.898,0.972c-0.12,0.063-0.244,0.129-0.364,0.2c-1.174-2.446-3.516-3.577-5.842-3.577
		c-1.988,0-3.783,0.711-5.225,2.046c0.054-0.129,0.117-0.249,0.168-0.381c0.553-1.434,0.833-2.962,0.833-4.54
		c0-1.983-0.578-3.596-1.715-4.779c-0.816-0.854-2.302-1.873-4.737-1.873c-1.017,0-1.945,0.18-2.761,0.531
		c-0.793,0.341-1.529,0.863-2.186,1.548c-0.942,0.955-1.704,2.22-2.329,3.866c-0.598,1.58-0.89,3.006-0.89,4.358
		c0,0.066,0.007,0.128,0.008,0.192c-0.276-0.154-0.555-0.311-0.852-0.444c-1.387-0.629-2.882-0.947-4.439-0.947
		c-2.598,0-5.184,0.609-7.682,1.805c-1.756,0.841-3.302,1.882-4.639,3.09c-0.648-1.132-1.61-2.126-2.86-2.922
		c-1.918-1.221-4.271-1.839-6.99-1.839c-3.105,0-6.271,1.057-9.411,3.147c-0.6,0.399-1.17,0.832-1.73,1.271
		c0.442-1.303,0.667-2.657,0.674-3.949c0.001-0.078-0.001-0.157-0.005-0.235c-0.173-3.449-1.726-5.567-2.999-6.737
		c-1.91-1.756-4.422-2.646-7.467-2.646c-1.157,0-2.405,0.176-3.708,0.521c-1.188,0.316-2.466,0.794-3.806,1.418
		c-1.307,0.609-2.585,1.333-3.745,2.113c-0.683,0.441-1.417,0.968-2.247,1.605c-0.844,0.651-1.637,1.343-2.365,2.061
		c-0.722,0.714-1.391,1.455-1.984,2.201c-0.578,0.724-1.131,1.479-1.614,2.203c-0.909,1.32-1.734,2.751-2.45,4.254
		c-0.729,1.525-1.299,3.03-1.689,4.465c-0.427,1.556-0.644,3.059-0.644,4.466c0,1.927,0.371,3.771,1.098,5.482
		c0.717,1.689,1.729,3.195,3.008,4.475s2.79,2.296,4.489,3.019c1.73,0.738,3.585,1.11,5.511,1.11c1.609,0,3.438-0.313,5.589-0.958
		c1.948-0.581,3.886-1.344,5.757-2.268c0.458-0.225,0.89-0.457,1.305-0.686c0.318,0.465,0.67,0.911,1.072,1.323
		c1.889,1.941,4.376,2.966,7.194,2.966c1.528,0,3.112-0.432,4.702-1.285c0.868-0.462,1.752-1.05,2.669-1.771
		c1.89,2.485,4.622,2.769,5.753,2.769c1.519,0,3.004-0.359,4.411-1.064c0.338-0.169,0.672-0.362,1.006-0.573
		c1.618,0.938,3.582,1.397,6.006,1.397c2.126,0,4.127-0.287,5.951-0.854c1.667-0.521,3.331-1.354,4.945-2.445
		c0.273,0.398,0.568,0.786,0.906,1.154c0.027,0.028,0.054,0.057,0.081,0.084c1.289,1.325,2.884,2.086,4.613,2.202
		c0.095,0.006,0.191,0.01,0.287,0.01h0.045c1.318,0,2.53-0.333,3.6-0.988c0.063-0.04,0.122-0.079,0.183-0.12
		c0.35-0.238,0.673-0.516,0.977-0.825c1.396,1.604,3.34,2.491,5.5,2.491c1.846,0,3.542-0.72,4.902-2.083
		c0.093-0.091,0.182-0.188,0.264-0.287c0.412-0.494,0.864-1.07,1.348-1.715c0.195-0.259,0.399-0.521,0.613-0.793
		c0.561,0.973,1.254,1.808,2.068,2.487c1.459,1.228,3.211,1.877,5.065,1.877c1.075,0,2.215-0.244,3.479-0.741
		c1.172-0.46,2.181-1.043,2.998-1.736c0.029-0.022,0.056-0.051,0.082-0.075c0.803,0.457,1.671,0.862,2.624,1.198
		c1.973,0.694,3.998,1.045,6.021,1.045c2.17,0,4.435-0.506,6.728-1.502c2.024-0.88,3.807-2.035,5.358-3.434
		c0.221,0.272,0.455,0.534,0.705,0.786c1.338,1.316,3.088,2.36,5.201,3.104c1.972,0.694,3.999,1.045,6.022,1.045
		c2.17,0,4.434-0.506,6.728-1.503c2.22-0.965,4.163-2.243,5.808-3.827c1.397-1.376,2.518-3.141,3.329-5.245
		c0.354-0.92,0.618-1.853,0.815-2.794c1.025,1.37,2.706,2.216,4.723,2.216c0.924,0,1.921-0.218,3.06-0.666
		c0.843-0.337,1.678-0.762,2.486-1.266c1.018-0.638,1.805-1.31,2.368-2.014c0.427-0.517,0.831-1.005,4.189-8.104
		c3.166-6.821,3.41-8.171,3.41-9.33C376.527,236.454,374.71,233.763,370.721,233.763z"/>
	<g>
		<path fill="#FFFFFF" d="M244.243,260.762v0.089l-0.09-0.089c-1.379,1.615-2.644,2.941-3.794,3.973
			c-1.15,1.032-2.21,1.809-3.182,2.327c-0.97,0.52-1.865,0.777-2.68,0.777c-1.662,0-3.033-0.556-4.116-1.668
			c-1.082-1.113-1.624-2.523-1.624-4.231c0-1.053,0.268-2.299,0.801-3.739c0.535-1.439,1.269-2.847,2.203-4.229
			c1.559-2.256,3.515-4.171,5.874-5.744c2.432-1.617,4.777-2.427,7.029-2.427c1.899,0,3.461,0.39,4.685,1.169
			c1.222,0.779,1.834,1.763,1.834,2.949c0,0.877-0.303,1.805-0.911,2.783c0.801,0,1.304,0.085,1.513,0.254
			c0.207,0.173,0.312,0.571,0.312,1.193c0-0.059-0.038,0.244-0.112,0.912c-0.087,1.47-0.133,2.842-0.133,4.118
			c0,0.667,0.008,1.173,0.022,1.514c0.014,0.341,0.043,0.734,0.088,1.18c0.045,0.445,0.089,0.801,0.135,1.069
			c0.119,0.696,0.311,1.387,0.577,2.068c-0.889,0.876-1.742,1.519-2.559,1.927c-0.815,0.408-1.646,0.612-2.491,0.612
			c-2.283,0-3.426-1.914-3.426-5.744C244.197,261.362,244.212,261.015,244.243,260.762z M245.578,255.663l-0.423,0.134
			c-1.067,0.299-1.839,0.445-2.314,0.445c-0.578,0-0.867-0.146-0.867-0.445c0-0.103,0.118-0.378,0.356-0.824
			c0.831-1.258,1.245-2.445,1.245-3.561c0-0.637-0.109-1.222-0.333-1.746c-0.222-0.526-0.466-0.79-0.735-0.79
			c-0.237,0-0.6,0.252-1.091,0.758c-1.379,1.496-2.473,3.033-3.281,4.605c-0.807,1.573-1.212,2.976-1.212,4.209
			c0,0.814,0.167,1.491,0.499,2.024c0.336,0.534,0.753,0.802,1.258,0.802c0.43,0,1.235-0.461,2.413-1.381
			c1.179-0.919,2.503-2.135,3.971-3.651l0.602-0.487L245.578,255.663z"/>
		<path fill="#FFFFFF" d="M260.271,264.728c0.874-0.035,1.671-0.396,2.391-1.08c0.72-0.686,1.08-1.43,1.08-2.234
			c0-0.553-0.214-0.992-0.645-1.318c-0.46-0.39-1.492-0.773-3.094-1.147c-2.357-0.579-3.893-1.225-4.604-1.94
			c-0.667-0.577-1.001-1.269-1.001-2.073c0-1.442,0.618-2.886,1.857-4.329c1.238-1.445,2.821-2.629,4.75-3.552
			c1.928-0.924,3.871-1.385,5.829-1.385c0.948,0,1.838,0.188,2.669,0.566c0.831,0.377,1.491,0.875,1.98,1.496
			c0.489,0.622,0.735,1.297,0.735,2.025c0,0.715-0.268,1.456-0.801,2.222c-0.535,0.767-1.206,1.403-2.015,1.911
			c-0.807,0.509-1.574,0.762-2.301,0.762c-0.416,0-0.775-0.073-1.08-0.223c-0.303-0.153-0.457-0.314-0.457-0.492
			c0-0.176,0.06-0.43,0.18-0.771c0.326-1.081,0.489-2.021,0.489-2.826c0-0.791-0.281-1.537-0.845-2.242
			c-0.729,0.427-1.202,0.767-1.425,1.016c-0.563,0.553-1.001,1.181-1.312,1.881c-0.341,0.718-0.513,1.393-0.513,2.033
			c0,0.451,0.123,0.813,0.369,1.083c0.246,0.268,0.647,0.498,1.202,0.688c0.558,0.187,1.398,0.396,2.525,0.622
			c1.885,0.39,3.211,0.768,3.982,1.131c0.177,0.089,0.452,0.27,0.822,0.545c0.563,0.517,0.846,1.182,0.846,1.998
			c0,0.868-0.321,1.742-0.958,2.629c-0.637,0.887-1.623,1.801-2.959,2.743c-1.423,1.016-2.841,1.745-4.25,2.185
			c-1.409,0.438-2.966,0.659-4.671,0.659c-1.646,0-2.94-0.278-3.882-0.831c-0.942-0.551-1.412-1.304-1.412-2.257
			c0-0.68,0.311-1.368,0.933-2.064c0.622-0.694,1.398-1.264,2.326-1.703c0.927-0.44,1.836-0.658,2.725-0.658
			c0.667,0,1.001,0.124,1.001,0.376c0,0.127-0.098,0.334-0.29,0.621c-0.577,0.88-0.867,1.689-0.867,2.431
			C259.581,263.749,259.81,264.253,260.271,264.728z"/>
		<path fill="#FFFFFF" d="M275.829,267.461c-0.667-0.046-1.275-0.348-1.823-0.911c-0.548-0.594-0.937-1.235-1.167-1.928
			c-0.229-0.69-0.344-1.583-0.344-2.681c0-2.449,0.457-5.213,1.37-8.293c0.911-3.076,1.945-5.308,3.103-6.69
			c0.458-0.576,1.098-0.866,1.912-0.866c0.861,0,1.555,0.396,2.081,1.18c0.526,0.787,0.79,1.816,0.79,3.093
			c0,1.886-0.271,4.091-0.814,6.623c-0.542,2.528-1.304,5.16-2.285,7.89c-0.386,1.1-0.86,1.841-1.422,2.226
			c-0.386,0.238-0.837,0.357-1.355,0.357L275.829,267.461L275.829,267.461z M278.502,245.089c-1.394-0.044-2.09-0.883-2.09-2.516
			c0-0.815,0.204-1.761,0.612-2.838c0.408-1.075,0.87-1.873,1.39-2.394c0.267-0.28,0.537-0.482,0.813-0.602
			c0.274-0.117,0.626-0.176,1.058-0.176c0.741,0,1.286,0.181,1.635,0.545c0.348,0.363,0.523,0.97,0.523,1.813
			c0,1.055-0.183,2.052-0.545,2.996c-0.364,0.942-0.849,1.706-1.457,2.291c-0.608,0.587-1.23,0.88-1.868,0.88H278.502
			L278.502,245.089z"/>
		<path fill="#FFFFFF" d="M292.443,255.501l1.34-1.562c1.357-1.504,2.431-2.624,3.224-3.359c0.792-0.735,1.504-1.267,2.133-1.595
			c0.63-0.325,1.271-0.489,1.924-0.489c1.052,0,1.792,0.281,2.222,0.846s0.645,1.543,0.645,2.938c0,0.579-0.059,1.434-0.178,2.561
			c-0.18,1.498-0.266,2.91-0.266,4.23c0,1.484,0.071,2.686,0.222,3.604c0.103,0.564,0.257,1.131,0.467,1.693
			c0.146,0.533,0.222,0.897,0.222,1.089c0,0.238-0.091,0.423-0.267,0.558c-0.46,0.4-1.067,0.749-1.824,1.047
			s-1.395,0.445-1.914,0.445c-0.845,0-1.612-0.291-2.302-0.869c-0.691-0.577-1.224-1.379-1.603-2.405
			c-0.379-1.021-0.567-2.18-0.567-3.471c0-0.861,0.087-1.878,0.267-3.05l-0.089-0.088c-0.638,0.711-1.154,1.275-1.547,1.69
			c-0.394,0.416-0.761,0.809-1.102,1.18c-1.661,1.899-3.069,3.613-4.227,5.142c-0.445,0.593-0.854,1.112-1.226,1.558
			c-0.548,0.548-1.17,0.823-1.867,0.823c-0.951,0-1.722-0.356-2.315-1.067c-0.594-0.714-0.891-1.633-0.891-2.762
			c0-0.697,0.082-1.551,0.246-2.559c0.163-1.012,0.382-2.09,0.656-3.24c0.274-1.149,0.601-2.332,0.978-3.551
			c0.378-1.217,0.791-2.373,1.236-3.474c0.682-1.825,1.513-3.247,2.491-4.273c0.668-0.667,1.476-1.002,2.425-1.002
			c1.543,0,2.314,1.002,2.314,3.005c0,1.469-0.308,3.575-0.921,6.317L292.443,255.501z"/>
		<path fill="#FFFFFF" d="M320.38,244.845c2.21,0,3.316,0.262,3.316,0.78c0,0.592-0.499,0.913-1.492,0.956
			c-1.201,0.074-2.322,0.417-3.359,1.024c-1.039,0.608-1.961,1.439-2.77,2.493c-0.809,1.055-1.438,2.241-1.893,3.562
			c-0.452,1.321-0.678,2.716-0.678,4.184c0,1.617,0.38,2.922,1.137,3.908c0.757,0.985,1.741,1.48,2.96,1.48
			c1.127,0,2.112-0.579,2.959-1.736c0.844-1.158,1.268-2.508,1.268-4.051c0-1.26-0.264-2.447-0.791-3.553
			c-0.525-1.104-1.293-2.036-2.301-2.792c-0.431-0.341-0.646-0.585-0.646-0.736c0-0.206,0.303-0.526,0.912-0.957
			c0.683-0.458,1.447-0.846,2.293-1.156c0.845-0.312,1.556-0.469,2.135-0.469c0.667,0,1.301,0.176,1.9,0.524
			c0.602,0.348,1.131,0.846,1.591,1.491c0.46,0.647,0.814,1.388,1.057,2.227c0.244,0.839,0.368,1.731,0.368,2.683
			c0,1.571-0.297,3.126-0.89,4.665c-0.595,1.536-1.372,2.779-2.337,3.727c-1.246,1.202-2.747,2.187-4.506,2.951
			c-1.758,0.764-3.43,1.146-5.018,1.146c-1.543,0-3.072-0.267-4.593-0.802s-2.724-1.239-3.617-2.114
			c-1.185-1.188-1.777-2.873-1.777-5.054c0-1.722,0.423-3.441,1.269-5.163c0.845-1.723,1.991-3.284,3.438-4.687
			s3.039-2.506,4.783-3.317C316.839,245.249,318.601,244.845,320.38,244.845z"/>
		<path fill="#FFFFFF" d="M344.394,244.845c2.208,0,3.314,0.262,3.314,0.78c0,0.592-0.496,0.913-1.488,0.956
			c-1.202,0.074-2.322,0.417-3.359,1.024c-1.04,0.608-1.965,1.439-2.772,2.493c-0.807,1.055-1.438,2.241-1.89,3.562
			c-0.453,1.321-0.677,2.716-0.677,4.184c0,1.617,0.378,2.922,1.133,3.908c0.757,0.985,1.744,1.48,2.96,1.48
			c1.127,0,2.112-0.579,2.959-1.736c0.846-1.158,1.269-2.508,1.269-4.051c0-1.26-0.265-2.447-0.791-3.553
			c-0.527-1.104-1.294-2.036-2.302-2.792c-0.432-0.341-0.646-0.585-0.646-0.736c0-0.206,0.304-0.526,0.911-0.957
			c0.682-0.458,1.446-0.846,2.292-1.156c0.847-0.312,1.559-0.469,2.135-0.469c0.668,0,1.303,0.176,1.903,0.524
			c0.6,0.348,1.13,0.846,1.591,1.491c0.458,0.647,0.813,1.388,1.057,2.227c0.243,0.839,0.368,1.731,0.368,2.683
			c0,1.571-0.3,3.126-0.893,4.665c-0.592,1.536-1.371,2.779-2.335,3.727c-1.246,1.202-2.748,2.187-4.506,2.951
			c-1.758,0.764-3.431,1.146-5.017,1.146c-1.544,0-3.075-0.267-4.596-0.802c-1.519-0.535-2.725-1.239-3.616-2.114
			c-1.185-1.188-1.778-2.873-1.778-5.054c0-1.722,0.423-3.441,1.269-5.163c0.847-1.723,1.991-3.284,3.438-4.687
			c1.447-1.402,3.041-2.506,4.784-3.317C340.852,245.249,342.615,244.845,344.394,244.845z"/>
		<path fill="#FFFFFF" d="M361.012,256.043c-1.009,0-1.512-0.424-1.512-1.279c0-0.217,0.08-0.637,0.244-1.258
			c1.217-4.532,2.521-8.441,3.916-11.726c0.328-0.815,0.722-1.439,1.182-1.871c0.547-0.509,1.396-0.945,2.538-1.309
			c1.142-0.364,2.256-0.543,3.341-0.543c1.01,0,1.515,0.298,1.515,0.896c0,0.689-1.006,3.198-3.014,7.523
			c-2.076,4.39-3.279,6.784-3.604,7.18c-0.297,0.371-0.741,0.734-1.335,1.106c-0.592,0.37-1.193,0.676-1.801,0.918
			C361.873,255.922,361.382,256.043,361.012,256.043z"/>
		<path fill="#FFFFFF" d="M228.888,255.932c-0.342,0-1.15,0.408-2.426,1.223c-2.878,1.899-5.606,3.362-8.187,4.387
			c-1.142,0.43-2.098,0.645-2.87,0.645c-0.892,0-1.495-0.273-1.813-0.822c-0.319-0.55-0.479-1.566-0.479-3.049
			c0-1.885,0.282-3.813,0.846-5.786c0.563-1.975,1.372-3.91,2.424-5.8c1.053-1.892,2.255-3.564,3.604-5.02
			c0.905-0.905,1.528-1.358,1.869-1.358c0.372,0,0.558,0.393,0.558,1.18c0,0.788-0.097,1.73-0.274,2.799
			c-0.109,1.312-0.008,3.535,1.782,4.245c0.433,0.139,0.962,0.149,1.608-0.036c3.203-0.91,4.358-4.119,4.37-6.578
			c-0.079-1.587-0.604-2.861-1.615-3.792c-1.098-1.01-2.617-1.514-4.56-1.514c-0.786,0-1.655,0.127-2.604,0.379
			c-0.949,0.253-1.979,0.639-3.092,1.157c-1.112,0.52-2.188,1.13-3.226,1.826c-0.594,0.385-1.248,0.854-1.959,1.401
			c-0.711,0.55-1.368,1.122-1.97,1.715c-0.601,0.594-1.15,1.201-1.646,1.824c-0.497,0.624-0.976,1.277-1.435,1.96
			c-0.786,1.144-1.492,2.367-2.113,3.673c-0.625,1.307-1.097,2.558-1.424,3.752c-0.328,1.195-0.49,2.304-0.49,3.327
			c0,1.35,0.252,2.618,0.757,3.806c0.503,1.187,1.202,2.228,2.09,3.116c0.892,0.892,1.936,1.594,3.136,2.104
			c1.202,0.513,2.479,0.769,3.828,0.769c1.172,0,2.625-0.259,4.36-0.778c1.735-0.519,3.43-1.187,5.084-2.004
			c1.653-0.815,2.956-1.647,3.904-2.493c0.563-0.503,1.232-1.571,2.003-3.206c0.384-0.843,0.616-1.602,0.69-2.27v-0.044
			C229.623,256.174,229.377,255.932,228.888,255.932z"/>
	</g>
	<g>
		<path fill="#FFFFFF" d="M367.341,264.403c0,3.916-3.171,7.086-7.086,7.086c-3.914,0-7.084-3.17-7.084-7.086
			c0-3.911,3.17-7.084,7.084-7.084C364.17,257.319,367.341,260.492,367.341,264.403z"/>
		<path fill="#AB1D2D" d="M366.963,264.403c0,3.702-3.002,6.707-6.708,6.707c-3.703,0-6.707-3.005-6.707-6.707
			s3.004-6.702,6.707-6.702C363.961,257.7,366.963,260.701,366.963,264.403z"/>
		<g>
			<path fill="#FFFFFF" d="M359.888,261.796l-0.682-4.137c0.347-0.053,0.699-0.079,1.049-0.079c0.354,0,0.711,0.026,1.059,0.079
				l-0.699,4.32L359.888,261.796z"/>
			<path fill="#FFFFFF" d="M360.255,271.229c-0.355,0-0.71-0.025-1.057-0.081l0.87-5.492l0.415,0.194l0.833,5.298
				C360.969,271.204,360.612,271.229,360.255,271.229z"/>
			<path fill="#FFFFFF" d="M355.067,268.836c-0.467-0.542-0.844-1.153-1.115-1.811l6.45-2.65L355.067,268.836z"/>
			<path fill="#FFFFFF" d="M361.767,263.174l3.689-3.189c0.458,0.538,0.829,1.145,1.099,1.797l-4.514,1.84L361.767,263.174z"/>
			<path fill="#FFFFFF" d="M353.948,261.787c0.272-0.654,0.65-1.264,1.113-1.81l3.584,3.063l-0.418,0.547L353.948,261.787z"/>
			<path fill="#FFFFFF" d="M361.877,265.758l0.426-0.523l4.259,1.787c-0.272,0.653-0.647,1.264-1.109,1.805L361.877,265.758z"/>
		</g>
		<path fill="#FFFFFF" d="M364.141,264.403c0,2.146-1.737,3.883-3.886,3.883c-2.143,0-3.88-1.737-3.88-3.883
			c0-2.144,1.737-3.882,3.88-3.882C362.403,260.521,364.141,262.26,364.141,264.403z"/>
	</g>
</g>
</svg>
